<svg data-v-423bf9ae="" xmlns="http://www.w3.org/2000/svg" viewBox="0 0 489 90" class="iconLeft"><!----><!----><!----><g data-v-423bf9ae="" id="69809995-6679-46b8-8b6b-99c0804ba5ae" fill="black" transform="matrix(5.499541759490967,0,0,5.499541759490967,86.0901870727539,-12.0027494430542)"><path d="M0.57 7.49L0.57 7.49Q0.57 6.27 1.36 5.60L1.36 5.60L1.36 5.60Q2.14 4.93 3.56 4.93L3.56 4.93L3.56 4.93Q4.83 4.93 6.01 5.31L6.01 5.31L5.85 7.34L5.11 7.34L4.80 6.06L4.80 6.06Q4.63 6.01 4.29 5.96L4.29 5.96L4.29 5.96Q3.95 5.91 3.72 5.91L3.72 5.91L3.72 5.91Q3.02 5.91 2.60 6.17L2.60 6.17L2.60 6.17Q2.17 6.43 2.17 7.03L2.17 7.03L2.17 7.03Q2.17 7.52 2.48 7.83L2.48 7.83L2.48 7.83Q2.80 8.15 3.40 8.40L3.40 8.40L4.68 8.93L4.68 8.93Q5.53 9.30 5.92 9.86L5.92 9.86L5.92 9.86Q6.30 10.42 6.30 11.21L6.30 11.21L6.30 11.21Q6.30 12.45 5.46 13.15L5.46 13.15L5.46 13.15Q4.62 13.85 3.01 13.85L3.01 13.85L3.01 13.85Q2.38 13.85 1.67 13.73L1.67 13.73L1.67 13.73Q0.97 13.62 0.42 13.41L0.42 13.41L0.63 11.41L1.41 11.41L1.64 12.63L1.64 12.63Q2.37 12.84 2.98 12.84L2.98 12.84L2.98 12.84Q3.72 12.84 4.15 12.56L4.15 12.56L4.15 12.56Q4.58 12.28 4.58 11.76L4.58 11.76L4.58 11.76Q4.58 11.28 4.30 11.00L4.30 11.00L4.30 11.00Q4.03 10.72 3.37 10.43L3.37 10.43L2.09 9.87L2.09 9.87Q1.47 9.60 1.02 9.02L1.02 9.02L1.02 9.02Q0.57 8.43 0.57 7.49L0.57 7.49ZM9.48 12.71L9.48 12.71Q9.48 13.19 9.14 13.51L9.14 13.51L9.14 13.51Q8.79 13.83 8.30 13.83L8.30 13.83L8.30 13.83Q7.83 13.83 7.48 13.51L7.48 13.51L7.48 13.51Q7.13 13.19 7.13 12.71L7.13 12.71L7.13 12.71Q7.13 12.22 7.48 11.88L7.48 11.88L7.48 11.88Q7.83 11.54 8.30 11.54L8.30 11.54L8.30 11.54Q8.79 11.54 9.14 11.88L9.14 11.88L9.14 11.88Q9.48 12.22 9.48 12.71L9.48 12.71ZM10.33 5.12L16.81 5.12L16.81 7.17L16.03 7.17L15.72 6.08L13.41 6.08L13.41 9.24L14.90 9.24L15.13 8.32L15.88 8.32L15.88 10.99L15.13 10.99L14.87 10.02L13.41 10.02L13.41 12.67L14.90 13.02L14.90 13.72L10.35 13.72L10.35 13.09L11.52 12.75L11.52 6.08L10.33 5.75L10.33 5.12ZM19.74 12.71L19.74 12.71Q19.74 13.19 19.40 13.51L19.40 13.51L19.40 13.51Q19.05 13.83 18.56 13.83L18.56 13.83L18.56 13.83Q18.09 13.83 17.74 13.51L17.74 13.51L17.74 13.51Q17.39 13.19 17.39 12.71L17.39 12.71L17.39 12.71Q17.39 12.22 17.74 11.88L17.74 11.88L17.74 11.88Q18.09 11.54 18.56 11.54L18.56 11.54L18.56 11.54Q19.05 11.54 19.40 11.88L19.40 11.88L19.40 11.88Q19.74 12.22 19.74 12.71L19.74 12.71ZM23.62 15.82L23.62 15.82Q22.74 15.82 22.06 15.37L22.06 15.37L22.12 14.85L23.07 14.85L23.07 14.85Q23.66 14.85 23.87 14.41L23.87 14.41L23.87 14.41Q24.08 13.97 24.08 13.15L24.08 13.15L24.08 6.08L22.89 5.75L22.89 5.12L27.15 5.12L27.15 5.75L25.96 6.08L25.96 12.84L25.96 12.84Q25.96 14.49 25.37 15.16L25.37 15.16L25.37 15.16Q24.78 15.82 23.62 15.82L23.62 15.82ZM29.78 11.58L29.39 12.77L30.34 13.09L30.34 13.72L27.26 13.72L27.26 13.10L28.25 12.75L30.90 5.12L31.99 4.94L34.86 12.75L35.85 13.09L35.85 13.72L31.96 13.72L31.96 13.09L32.87 12.81L32.47 11.58L29.78 11.58ZM32.19 10.82L31.07 7.80L30.04 10.82L32.19 10.82ZM42.97 13.43L42.97 13.43Q42.32 13.65 41.71 13.76L41.71 13.76L41.71 13.76Q41.10 13.87 40.33 13.87L40.33 13.87L40.33 13.87Q38.89 13.87 37.95 13.27L37.95 13.27L37.95 13.27Q37.02 12.67 36.57 11.66L36.57 11.66L36.57 11.66Q36.13 10.64 36.13 9.35L36.13 9.35L36.13 9.35Q36.13 7.38 37.16 6.15L37.16 6.15L37.16 6.15Q38.18 4.91 40.33 4.91L40.33 4.91L40.33 4.91Q41.13 4.91 41.70 5.02L41.70 5.02L41.70 5.02Q42.27 5.12 42.97 5.32L42.97 5.32L42.81 7.46L42.11 7.46L41.76 6.09L41.76 6.09Q41.54 6.01 41.22 5.96L41.22 5.96L41.22 5.96Q40.89 5.91 40.60 5.91L40.60 5.91L40.60 5.91Q39.19 5.91 38.65 6.85L38.65 6.85L38.65 6.85Q38.12 7.80 38.12 9.35L38.12 9.35L38.12 9.35Q38.12 10.84 38.67 11.84L38.67 11.84L38.67 11.84Q39.23 12.84 40.54 12.84L40.54 12.84L40.54 12.84Q41.13 12.84 41.76 12.66L41.76 12.66L42.11 11.45L42.85 11.45L42.97 13.43ZM51.97 13.09L51.97 13.72L49.39 13.72L46.94 10.18L46.94 12.77L47.85 13.08L47.85 13.72L43.88 13.72L43.88 13.09L45.05 12.75L45.05 6.08L43.88 5.75L43.88 5.12L47.85 5.12L47.85 5.77L46.94 6.08L46.94 8.86L49.50 5.96L48.73 5.75L48.73 5.12L51.60 5.12L51.60 5.73L50.65 6.03L48.20 8.92L50.83 12.70L51.97 13.09ZM56.74 9.10L56.98 8.18L57.72 8.18L57.72 10.85L56.98 10.85L56.71 9.88L55.26 9.88L55.26 12.75L57.79 12.75L58.16 11.45L58.94 11.45L58.94 13.72L52.19 13.72L52.19 13.09L53.37 12.75L53.37 6.08L52.18 5.75L52.18 5.12L58.66 5.12L58.66 7.17L57.88 7.17L57.57 6.08L55.26 6.08L55.26 9.10L56.74 9.10ZM59.51 7.35L59.42 5.12L66.77 5.12L66.68 7.35L65.88 7.35L65.60 6.08L64.04 6.08L64.04 12.75L65.23 13.09L65.23 13.72L60.97 13.72L60.97 13.09L62.15 12.75L62.15 6.08L60.55 6.08L60.28 7.35L59.51 7.35ZM67.44 7.49L67.44 7.49Q67.44 6.27 68.22 5.60L68.22 5.60L68.22 5.60Q69.01 4.93 70.42 4.93L70.42 4.93L70.42 4.93Q71.69 4.93 72.87 5.31L72.87 5.31L72.72 7.34L71.97 7.34L71.67 6.06L71.67 6.06Q71.50 6.01 71.16 5.96L71.16 5.96L71.16 5.96Q70.81 5.91 70.59 5.91L70.59 5.91L70.59 5.91Q69.89 5.91 69.46 6.17L69.46 6.17L69.46 6.17Q69.03 6.43 69.03 7.03L69.03 7.03L69.03 7.03Q69.03 7.52 69.35 7.83L69.35 7.83L69.35 7.83Q69.66 8.15 70.27 8.40L70.27 8.40L71.54 8.93L71.54 8.93Q72.39 9.30 72.78 9.86L72.78 9.86L72.78 9.86Q73.16 10.42 73.16 11.21L73.16 11.21L73.16 11.21Q73.16 12.45 72.32 13.15L72.32 13.15L72.32 13.15Q71.48 13.85 69.87 13.85L69.87 13.85L69.87 13.85Q69.24 13.85 68.54 13.73L68.54 13.73L68.54 13.73Q67.83 13.62 67.28 13.41L67.28 13.41L67.49 11.41L68.28 11.41L68.50 12.63L68.50 12.63Q69.23 12.84 69.85 12.84L69.85 12.84L69.85 12.84Q70.59 12.84 71.02 12.56L71.02 12.56L71.02 12.56Q71.44 12.28 71.44 11.76L71.44 11.76L71.44 11.76Q71.44 11.28 71.17 11.00L71.17 11.00L71.17 11.00Q70.90 10.72 70.24 10.43L70.24 10.43L68.95 9.87L68.95 9.87Q68.33 9.60 67.89 9.02L67.89 9.02L67.89 9.02Q67.44 8.43 67.44 7.49L67.44 7.49Z"></path></g><!----><g data-v-423bf9ae="" id="04a003d9-bbbd-4fc1-8efd-63a43a840a01" transform="matrix(3.5999999046325684,0,0,3.5999999046325684,-23.099998474121094,-12.099998474121094)" stroke="none" fill="black"><path d="M21.5 12v16a.5.5 0 0 1-.5.5H11a.5.5 0 0 1-.5-.5V12a.5.5 0 1 0-1 0v14.5H8a.5.5 0 0 1-.5-.5v-.585A1.5 1.5 0 0 1 6.5 24V10c0-2.276 1.224-3.5 3.5-3.5h1.5V5.314l.282.136c1.23.615 2.472.962 3.718 1.035V26.5h1V8.207l.146.147a.5.5 0 0 0 .708-.708l-.854-.853v-.308c1.246-.073 2.488-.42 3.724-1.038l.276-.133V6.5H22c2.276 0 3.5 1.224 3.5 3.5v14a1.5 1.5 0 0 1-1 1.415V26a.5.5 0 0 1-.5.5h-1.5V12a.5.5 0 1 0-1 0zm-9.576-7.592c.833-.62 2.19-.908 4.076-.908 1.887 0 3.243.289 4.076.908l-.294.142c-1.271.636-2.529.95-3.782.95-1.253 0-2.51-.314-3.776-.947l-.3-.145z"></path></g><!----></svg>