<svg data-v-fde0c5aa="" xmlns="http://www.w3.org/2000/svg" viewBox="0 0 300 300" class="iconLeft"><!----><defs data-v-fde0c5aa=""><!----></defs><rect data-v-fde0c5aa="" fill="transparent" x="0" y="0" width="300px" height="300px" class="logo-background-square"></rect><defs data-v-fde0c5aa=""><!----></defs><g data-v-fde0c5aa="" id="0a815465-d483-451e-a835-82caf56cae1f" fill="#000000" transform="matrix(1.9675530195236206,0,0,1.9675530195236206,76.59017182198178,129.18328963656242)"><path d="M0.18 9.37L0.18 9.37L0.18 9.37Q0.22 9.16 0.23 9.03L0.23 9.03L0.23 9.03Q0.25 8.90 0.14 8.75L0.14 8.75L0.14 8.75Q0.19 8.53 0.23 8.41L0.23 8.41L0.23 8.41Q0.26 8.29 0.23 8.07L0.23 8.07L0.23 8.07Q0.36 7.71 0.61 7.46L0.61 7.46L0.61 7.46Q0.86 7.22 1.16 7.05L1.16 7.05L1.16 7.05Q1.46 6.88 1.79 6.76L1.79 6.76L1.79 6.76Q2.12 6.64 2.41 6.56L2.41 6.56L2.41 6.56Q2.41 6.51 2.35 6.51L2.35 6.51L2.35 6.51Q2.30 6.51 2.32 6.44L2.32 6.44L2.32 6.44Q3.06 6.30 3.81 6.04L3.81 6.04L3.81 6.04Q4.55 5.78 5.33 5.58L5.33 5.58L5.33 5.58Q6.11 5.37 6.93 5.33L6.93 5.33L6.93 5.33Q7.75 5.28 8.65 5.54L8.65 5.54L8.65 5.54Q8.71 5.70 8.80 5.85L8.80 5.85L8.80 5.85Q8.90 6.00 9.00 6.15L9.00 6.15L9.00 6.15Q9.11 6.29 9.19 6.43L9.19 6.43L9.19 6.43Q9.27 6.56 9.28 6.71L9.28 6.71L9.28 6.71Q9.45 6.86 9.55 7.03L9.55 7.03L9.55 7.03Q9.65 7.21 9.58 7.49L9.58 7.49L9.58 7.49Q9.43 7.60 9.27 7.71L9.27 7.71L9.27 7.71Q9.11 7.82 8.93 7.92L8.93 7.92L8.93 7.92Q8.31 7.77 7.70 7.81L7.70 7.81L7.70 7.81Q7.08 7.85 6.59 7.90L6.59 7.90L6.59 7.90Q6.44 7.74 6.23 7.75L6.23 7.75L6.23 7.75Q6.03 7.75 5.80 7.81L5.80 7.81L5.80 7.81Q5.58 7.88 5.36 7.94L5.36 7.94L5.36 7.94Q5.14 8.00 4.95 7.97L4.95 7.97L4.95 7.97Q4.80 8.11 4.55 8.16L4.55 8.16L4.55 8.16Q4.31 8.20 4.03 8.23L4.03 8.23L4.03 8.23Q4.02 8.30 4.06 8.33L4.06 8.33L4.06 8.33Q4.10 8.35 4.07 8.44L4.07 8.44L4.07 8.44Q4.17 8.56 4.33 8.61L4.33 8.61L4.33 8.61Q4.50 8.65 4.67 8.70L4.67 8.70L4.67 8.70Q4.84 8.74 4.98 8.81L4.98 8.81L4.98 8.81Q5.11 8.89 5.15 9.05L5.15 9.05L5.15 9.05Q5.40 9.06 5.58 9.18L5.58 9.18L5.58 9.18Q5.76 9.30 5.88 9.46L5.88 9.46L5.88 9.46Q6.00 9.63 6.06 9.81L6.06 9.81L6.06 9.81Q6.11 9.99 6.10 10.14L6.10 10.14L6.10 10.14Q6.15 10.28 6.21 10.25L6.21 10.25L6.21 10.25Q6.28 10.23 6.36 10.32L6.36 10.32L6.36 10.32Q6.41 10.53 6.61 10.75L6.61 10.75L6.61 10.75Q6.81 10.98 6.92 11.24L6.92 11.24L6.92 11.24Q6.95 11.65 6.97 11.98L6.97 11.98L6.97 11.98Q6.99 12.30 6.85 12.62L6.85 12.62L6.85 12.62Q6.62 13.22 6.18 13.70L6.18 13.70L6.18 13.70Q5.74 14.18 5.19 14.54L5.19 14.54L5.19 14.54Q4.63 14.90 4.02 15.17L4.02 15.17L4.02 15.17Q3.40 15.44 2.80 15.61L2.80 15.61L2.80 15.61Q2.75 15.60 2.67 15.61L2.67 15.61L2.67 15.61Q2.60 15.63 2.64 15.53L2.64 15.53L2.64 15.53Q2.52 15.64 2.36 15.67L2.36 15.67L2.36 15.67Q2.20 15.70 2.02 15.69L2.02 15.69L2.02 15.69Q1.83 15.68 1.65 15.67L1.65 15.67L1.65 15.67Q1.46 15.65 1.29 15.68L1.29 15.68L1.29 15.68Q1.18 15.57 1.09 15.46L1.09 15.46L1.09 15.46Q1.00 15.35 0.94 15.20L0.94 15.20L0.94 15.20Q0.88 15.19 0.88 15.11L0.88 15.11L0.88 15.11Q0.89 15.04 0.82 15.04L0.82 15.04L0.82 15.04Q0.82 14.98 0.83 14.96L0.83 14.96L0.83 14.96Q0.85 14.93 0.86 14.90L0.86 14.90L0.86 14.90Q0.92 14.86 0.91 14.84L0.91 14.84L0.91 14.84Q0.90 14.82 0.87 14.80L0.87 14.80L0.87 14.80Q0.83 14.78 0.80 14.75L0.80 14.75L0.80 14.75Q0.77 14.72 0.78 14.68L0.78 14.68L0.78 14.68Q0.85 14.56 0.83 14.39L0.83 14.39L0.83 14.39Q0.81 14.22 0.79 14.04L0.79 14.04L0.79 14.04Q0.78 13.86 0.82 13.71L0.82 13.71L0.82 13.71Q0.86 13.55 1.05 13.44L1.05 13.44L1.05 13.44Q1.61 13.49 2.11 13.38L2.11 13.38L2.11 13.38Q2.61 13.28 3.06 13.08L3.06 13.08L3.06 13.08Q3.50 12.89 3.90 12.67L3.90 12.67L3.90 12.67Q4.31 12.44 4.69 12.25L4.69 12.25L4.69 12.25Q4.73 12.11 4.82 12.02L4.82 12.02L4.82 12.02Q4.91 11.92 5.00 11.83L5.00 11.83L5.00 11.83Q5.10 11.74 5.18 11.64L5.18 11.64L5.18 11.64Q5.26 11.54 5.30 11.39L5.30 11.39L5.30 11.39Q5.32 11.33 5.30 11.31L5.30 11.31L5.30 11.31Q5.29 11.28 5.26 11.26L5.26 11.26L5.26 11.26Q5.24 11.24 5.21 11.21L5.21 11.21L5.21 11.21Q5.18 11.18 5.18 11.13L5.18 11.13L5.18 11.13Q5.14 11.12 5.11 11.10L5.11 11.10L5.11 11.10Q5.07 11.09 5.04 11.09L5.04 11.09L5.04 11.09Q4.69 10.91 4.29 10.79L4.29 10.79L4.29 10.79Q3.90 10.66 3.62 10.51L3.62 10.51L3.62 10.51Q3.46 10.62 3.29 10.57L3.29 10.57L3.29 10.57Q3.13 10.51 2.90 10.46L2.90 10.46L2.90 10.46Q2.32 10.43 1.81 10.35L1.81 10.35L1.81 10.35Q1.30 10.27 0.82 10.06L0.82 10.06L0.82 10.06Q0.79 9.98 0.75 9.92L0.75 9.92L0.75 9.92Q0.71 9.86 0.56 9.88L0.56 9.88L0.56 9.88Q0.46 9.75 0.36 9.63L0.36 9.63L0.36 9.63Q0.26 9.52 0.18 9.37ZM10.01 13.79L10.06 13.90L10.06 13.90Q10.09 14.01 10.10 14.11L10.10 14.11L10.10 14.11Q10.12 14.21 10.14 14.31L10.14 14.31L10.14 14.31Q10.09 14.45 10.05 14.58L10.05 14.58L10.05 14.58Q10.01 14.71 9.97 14.83L9.97 14.83L9.97 14.83Q9.93 14.93 9.91 14.96L9.91 14.96L9.91 14.96Q9.90 14.98 9.90 15.00L9.90 15.00L9.90 15.00Q9.90 15.01 9.91 15.03L9.91 15.03L9.91 15.03Q9.91 15.05 9.91 15.15L9.91 15.15L9.86 15.31L9.86 15.31Q9.79 15.41 9.69 15.46L9.69 15.46L9.69 15.46Q9.60 15.52 9.50 15.56L9.50 15.56L9.50 15.56Q9.47 15.59 9.42 15.61L9.42 15.61L9.42 15.61Q9.37 15.63 9.34 15.65L9.34 15.65L9.30 15.82L9.12 15.85L9.12 15.85Q8.89 15.90 8.72 15.90L8.72 15.90L8.56 15.90L8.56 15.90Q8.39 15.75 8.30 15.67L8.30 15.67L8.30 15.67Q8.20 15.59 8.09 15.52L8.09 15.52L8.09 15.52Q7.96 15.33 7.94 15.24L7.94 15.24L7.94 15.24Q7.93 15.15 7.90 15.07L7.90 15.07L7.90 15.07Q7.88 14.89 7.83 14.83L7.83 14.83L7.64 14.64L7.81 14.52L7.66 14.26L7.66 14.26Q7.82 14.14 7.90 14.08L7.90 14.08L7.90 14.08Q7.98 14.03 8.04 13.97L8.04 13.97L8.04 13.97Q8.09 13.90 8.16 13.81L8.16 13.81L8.16 13.81Q8.23 13.71 8.38 13.49L8.38 13.49L8.50 13.32L8.68 13.41L8.68 13.41Q8.74 13.45 8.92 13.49L8.92 13.49L8.92 13.49Q9.11 13.52 9.24 13.55L9.24 13.55L9.24 13.55Q9.47 13.62 9.68 13.65L9.68 13.65L9.68 13.65Q9.88 13.69 10.01 13.79L10.01 13.79ZM11.87 12.76L11.87 12.76L11.87 12.76Q11.46 12.52 11.24 12.10L11.24 12.10L11.24 12.10Q11.02 11.68 10.99 11.29L10.99 11.29L10.99 11.29Q11.03 10.96 11.16 10.78L11.16 10.78L11.16 10.78Q11.29 10.60 11.47 10.48L11.47 10.48L11.47 10.48Q11.65 10.36 11.84 10.30L11.84 10.30L11.84 10.30Q12.03 10.24 12.21 10.20L12.21 10.20L12.41 10.27L12.41 10.27Q12.48 10.34 12.56 10.39L12.56 10.39L12.56 10.39Q12.63 10.45 12.70 10.50L12.70 10.50L12.70 10.50Q12.84 10.45 12.87 10.34L12.87 10.34L12.87 10.34Q12.91 10.23 12.95 10.12L12.95 10.12L12.95 10.12Q12.99 9.97 13.04 9.82L13.04 9.82L13.04 9.82Q13.10 9.67 13.18 9.52L13.18 9.52L13.18 9.52Q13.17 9.39 13.19 9.30L13.19 9.30L13.19 9.30Q13.22 9.20 13.25 9.13L13.25 9.13L13.25 9.13Q13.17 9.06 13.13 9.06L13.13 9.06L13.13 9.06Q13.10 9.05 13.02 9.02L13.02 9.02L13.02 9.02Q12.97 9.02 12.93 9.02L12.93 9.02L12.93 9.02Q12.89 9.01 12.84 9.00L12.84 9.00L12.84 9.00Q12.63 8.85 12.57 8.74L12.57 8.74L12.57 8.74Q12.51 8.64 12.44 8.53L12.44 8.53L12.44 8.53Q12.37 8.42 12.32 8.34L12.32 8.34L12.32 8.34Q12.26 8.26 12.20 8.19L12.20 8.19L12.03 8.08L12.11 7.92L12.11 7.92Q12.14 7.89 12.14 7.84L12.14 7.84L12.14 7.84Q12.14 7.79 12.09 7.70L12.09 7.70L12.09 7.70Q12.04 7.52 12.07 7.44L12.07 7.44L12.10 7.27L12.10 7.27Q12.24 7.10 12.25 7.07L12.25 7.07L12.39 6.93L12.39 6.93Q12.70 6.85 13.03 6.75L13.03 6.75L13.03 6.75Q13.36 6.64 13.67 6.54L13.67 6.54L13.67 6.54Q13.99 6.43 14.31 6.32L14.31 6.32L14.31 6.32Q14.64 6.21 14.97 6.13L14.97 6.13L14.97 6.13Q15.08 6.03 15.21 6.01L15.21 6.01L15.21 6.01Q15.34 5.99 15.45 5.97L15.45 5.97L15.45 5.97Q15.54 5.97 15.63 5.96L15.63 5.96L15.63 5.96Q15.71 5.95 15.75 5.89L15.75 5.89L15.75 5.89Q15.98 5.81 16.20 5.76L16.20 5.76L16.20 5.76Q16.61 5.65 17.28 5.50L17.28 5.50L17.28 5.50Q17.95 5.35 18.79 5.28L18.79 5.28L19.07 5.26L19.07 5.26Q19.15 5.28 19.24 5.27L19.24 5.27L19.24 5.27Q19.32 5.26 19.40 5.26L19.40 5.26L19.40 5.26Q20.11 5.26 20.34 5.70L20.34 5.70L20.34 5.70Q20.48 5.77 20.59 5.87L20.59 5.87L20.59 5.87Q20.70 5.97 20.79 6.07L20.79 6.07L20.79 6.07Q20.86 6.14 20.92 6.19L20.92 6.19L20.92 6.19Q20.97 6.23 21.01 6.26L21.01 6.26L21.12 6.37L21.12 6.37Q21.27 6.70 21.18 7.01L21.18 7.01L21.18 7.01Q21.10 7.18 21 7.21L21 7.21L21 7.21Q20.90 7.23 20.81 7.26L20.81 7.26L20.63 7.36L20.63 7.36Q20.45 7.34 20.36 7.34L20.36 7.34L20.36 7.34Q20.28 7.34 20.17 7.34L20.17 7.34L20.17 7.34Q19.76 7.34 19.22 7.39L19.22 7.39L19.22 7.39Q18.68 7.44 18.12 7.53L18.12 7.53L18.12 7.53Q17.55 7.62 17.02 7.75L17.02 7.75L17.02 7.75Q16.49 7.88 16.09 8.03L16.09 8.03L16.09 8.03Q15.98 8.11 15.80 8.18L15.80 8.18L15.80 8.18Q15.76 8.19 15.68 8.24L15.68 8.24L15.68 8.24Q15.70 8.35 15.68 8.46L15.68 8.46L15.68 8.46Q15.67 8.56 15.64 8.65L15.64 8.65L15.64 8.65Q15.63 8.72 15.62 8.80L15.62 8.80L15.62 8.80Q15.61 8.87 15.60 8.96L15.60 8.96L15.60 8.96Q15.31 9.30 15.33 9.76L15.33 9.76L15.26 9.90L15.26 9.90Q15.20 9.95 15.17 10.06L15.17 10.06L15.17 10.06Q15.13 10.16 15.16 10.27L15.16 10.27L15.22 10.43L15.22 10.43Q15.49 10.40 15.76 10.37L15.76 10.37L15.76 10.37Q16.02 10.34 16.32 10.29L16.32 10.29L16.32 10.29Q16.71 10.23 17.10 10.18L17.10 10.18L17.10 10.18Q17.49 10.13 17.91 10.13L17.91 10.13L18.44 10.13L18.32 10.25L18.47 10.27L18.39 10.49L18.39 10.49Q18.48 10.53 18.53 10.55L18.53 10.55L18.53 10.55Q18.58 10.57 18.62 10.60L18.62 10.60L18.72 10.73L18.72 10.73Q18.79 10.77 18.84 10.86L18.84 10.86L18.84 10.86Q18.89 10.95 18.91 11.10L18.91 11.10L18.87 11.24L18.22 12.06L18.14 12.17L18.01 12.13L18.01 12.13Q17.75 12.11 17.51 12.18L17.51 12.18L17.51 12.18Q17.40 12.21 17.28 12.24L17.28 12.24L17.28 12.24Q17.16 12.28 17.04 12.28L17.04 12.28L17.04 12.28Q16.71 12.33 16.49 12.37L16.49 12.37L16.49 12.37Q16.27 12.40 16.05 12.43L16.05 12.43L16.05 12.43Q15.75 12.48 15.47 12.53L15.47 12.53L15.47 12.53Q15.19 12.58 14.94 12.67L14.94 12.67L14.94 12.67Q14.79 12.69 14.77 12.68L14.77 12.68L14.77 12.68Q14.74 12.67 14.71 12.67L14.71 12.67L14.71 12.67Q14.57 12.67 14.44 12.71L14.44 12.71L14.44 12.71Q14.30 12.76 14.18 12.80L14.18 12.80L14.18 12.80Q14.10 12.87 14.07 12.94L14.07 12.94L14.07 12.94Q14.04 13.02 14.01 13.10L14.01 13.10L14.01 13.10Q13.99 13.19 13.94 13.28L13.94 13.28L13.94 13.28Q13.89 13.37 13.82 13.47L13.82 13.47L13.84 13.71L13.84 13.71Q13.71 13.74 13.71 13.75L13.71 13.75L13.71 13.75Q13.71 13.75 13.70 13.75L13.70 13.75L13.70 13.75Q13.70 13.86 13.67 13.96L13.67 13.96L13.67 13.96Q13.63 14.05 13.60 14.14L13.60 14.14L13.60 14.14Q13.58 14.19 13.56 14.23L13.56 14.23L13.56 14.23Q13.55 14.27 13.55 14.31L13.55 14.31L13.55 14.31Q13.69 14.56 13.62 14.88L13.62 14.88L13.62 14.88Q13.56 15.13 13.41 15.33L13.41 15.33L13.41 15.33Q13.26 15.53 13.06 15.64L13.06 15.64L13.06 15.64Q12.84 15.67 12.74 15.63L12.74 15.63L12.74 15.63Q12.63 15.59 12.52 15.54L12.52 15.54L12.52 15.54Q12.46 15.52 12.39 15.50L12.39 15.50L12.39 15.50Q12.32 15.48 12.25 15.46L12.25 15.46L12.09 15.33L12.09 15.33Q12.04 15.24 11.99 15.17L11.99 15.17L11.99 15.17Q11.94 15.09 11.88 15.01L11.88 15.01L11.88 15.01Q11.81 14.92 11.74 14.82L11.74 14.82L11.74 14.82Q11.68 14.72 11.62 14.60L11.62 14.60L11.62 14.60Q11.53 14.12 11.59 13.80L11.59 13.80L11.59 13.80Q11.65 13.48 11.76 13.17L11.76 13.17L11.76 13.17Q11.79 13.06 11.81 12.96L11.81 12.96L11.81 12.96Q11.84 12.87 11.87 12.76ZM21.26 13.79L21.31 13.90L21.31 13.90Q21.34 14.01 21.36 14.11L21.36 14.11L21.36 14.11Q21.37 14.21 21.40 14.31L21.40 14.31L21.40 14.31Q21.34 14.45 21.30 14.58L21.30 14.58L21.30 14.58Q21.26 14.71 21.22 14.83L21.22 14.83L21.22 14.83Q21.18 14.93 21.16 14.96L21.16 14.96L21.16 14.96Q21.15 14.98 21.15 15.00L21.15 15.00L21.15 15.00Q21.15 15.01 21.16 15.03L21.16 15.03L21.16 15.03Q21.16 15.05 21.16 15.15L21.16 15.15L21.11 15.31L21.11 15.31Q21.04 15.41 20.95 15.46L20.95 15.46L20.95 15.46Q20.85 15.52 20.75 15.56L20.75 15.56L20.75 15.56Q20.73 15.59 20.67 15.61L20.67 15.61L20.67 15.61Q20.62 15.63 20.59 15.65L20.59 15.65L20.55 15.82L20.37 15.85L20.37 15.85Q20.14 15.90 19.97 15.90L19.97 15.90L19.81 15.90L19.81 15.90Q19.65 15.75 19.55 15.67L19.55 15.67L19.55 15.67Q19.46 15.59 19.35 15.52L19.35 15.52L19.35 15.52Q19.21 15.33 19.20 15.24L19.20 15.24L19.20 15.24Q19.18 15.15 19.15 15.07L19.15 15.07L19.15 15.07Q19.13 14.89 19.09 14.83L19.09 14.83L18.89 14.64L19.06 14.52L18.91 14.26L18.91 14.26Q19.07 14.14 19.15 14.08L19.15 14.08L19.15 14.08Q19.24 14.03 19.29 13.97L19.29 13.97L19.29 13.97Q19.35 13.90 19.41 13.81L19.41 13.81L19.41 13.81Q19.48 13.71 19.63 13.49L19.63 13.49L19.76 13.32L19.93 13.41L19.93 13.41Q19.99 13.45 20.17 13.49L20.17 13.49L20.17 13.49Q20.36 13.52 20.49 13.55L20.49 13.55L20.49 13.55Q20.73 13.62 20.93 13.65L20.93 13.65L20.93 13.65Q21.14 13.69 21.26 13.79L21.26 13.79ZM32.20 15.29L32.16 15.29L32.16 15.29Q31.95 15.31 31.77 15.35L31.77 15.35L31.77 15.35Q31.58 15.39 31.39 15.45L31.39 15.45L31.39 15.45Q31.31 15.48 31.23 15.49L31.23 15.49L31.23 15.49Q31.14 15.50 31.05 15.53L31.05 15.53L31.05 15.53Q30.80 15.48 30.58 15.45L30.58 15.45L30.58 15.45Q30.35 15.42 30.17 15.42L30.17 15.42L29.97 15.37L29.97 15.37Q29.80 15.31 29.72 15.28L29.72 15.28L29.72 15.28Q29.64 15.24 29.57 15.22L29.57 15.22L29.57 15.22Q29.49 15.20 29.39 15.19L29.39 15.19L29.39 15.19Q29.29 15.18 29.09 15.15L29.09 15.15L29.09 15.15Q28.86 15.24 28.64 15.24L28.64 15.24L28.64 15.24Q28.49 15.24 28.33 15.20L28.33 15.20L28.33 15.20Q28.16 15.15 28 15.00L28 15.00L28 15.00Q27.84 14.86 27.69 14.61L27.69 14.61L27.69 14.61Q27.54 14.36 27.43 13.96L27.43 13.96L27.43 13.96Q27.47 13.64 27.52 13.41L27.52 13.41L27.52 13.41Q27.58 13.18 27.63 13.04L27.63 13.04L27.74 12.92L27.74 12.92Q27.99 12.82 28.30 12.82L28.30 12.82L28.30 12.82Q28.60 12.82 28.89 12.92L28.89 12.92L28.89 12.92Q29.18 13.02 29.46 13.13L29.46 13.13L29.46 13.13Q29.59 13.18 29.64 13.21L29.64 13.21L29.64 13.21Q29.70 13.23 29.72 13.25L29.72 13.25L29.72 13.25Q29.75 13.26 29.80 13.26L29.80 13.26L29.80 13.26Q29.85 13.26 29.97 13.26L29.97 13.26L29.97 13.26Q30.04 13.26 30.10 13.25L30.10 13.25L30.10 13.25Q30.16 13.25 30.23 13.23L30.23 13.23L30.39 13.25L30.39 13.25Q30.49 13.30 30.63 13.30L30.63 13.30L30.63 13.30Q30.72 13.30 30.82 13.28L30.82 13.28L30.82 13.28Q30.93 13.25 31.04 13.22L31.04 13.22L31.04 13.22Q31.14 13.18 31.23 13.17L31.23 13.17L31.23 13.17Q31.31 13.15 31.38 13.13L31.38 13.13L31.51 13.00L31.51 13.00Q31.65 12.95 31.73 12.88L31.73 12.88L31.73 12.88Q31.80 12.81 31.86 12.72L31.86 12.72L31.86 12.72Q31.91 12.63 31.96 12.54L31.96 12.54L31.96 12.54Q32.01 12.44 32.09 12.33L32.09 12.33L32.09 12.33Q32.16 12.25 32.22 12.17L32.22 12.17L32.22 12.17Q32.28 12.09 32.35 12.02L32.35 12.02L32.35 11.88L32.35 11.88Q32.57 11.38 32.73 10.86L32.73 10.86L32.73 10.86Q32.89 10.34 33.02 9.82L33.02 9.82L33.02 9.82Q33.14 9.30 33.23 8.80L33.23 8.80L33.23 8.80Q33.32 8.31 33.39 7.92L33.39 7.92L33.39 7.92Q33.35 7.92 33.30 7.91L33.30 7.91L33.30 7.91Q33.26 7.90 33.24 7.90L33.24 7.90L33.24 7.90Q32.83 7.90 32.57 7.92L32.57 7.92L32.57 7.92Q32.31 7.93 32.09 7.96L32.09 7.96L32.09 7.96Q31.87 7.98 31.63 8.03L31.63 8.03L31.63 8.03Q31.39 8.08 31.02 8.15L31.02 8.15L30.79 8.19L30.79 8.19Q30.53 8.31 30.29 8.42L30.29 8.42L30.29 8.42Q30.05 8.52 29.79 8.52L29.79 8.52L29.79 8.52Q29.38 8.52 29.08 8.19L29.08 8.19L29.08 8.19Q28.77 8.00 28.72 7.64L28.72 7.64L28.72 7.64Q28.66 7.52 28.67 7.41L28.67 7.41L28.67 7.41Q28.62 7.22 28.61 7.06L28.61 7.06L28.61 7.06Q28.60 6.90 28.60 6.77L28.60 6.77L28.62 6.54L28.82 6.54L28.82 6.54Q28.90 6.45 28.94 6.41L28.94 6.41L28.94 6.41Q28.97 6.37 28.98 6.32L28.98 6.32L29.03 6.18L29.16 6.17L29.16 6.17Q29.45 6.13 29.75 6.07L29.75 6.07L29.75 6.07Q30.05 6.02 30.37 5.95L30.37 5.95L30.37 5.95Q30.68 5.89 30.91 5.85L30.91 5.85L30.91 5.85Q31.13 5.81 31.34 5.79L31.34 5.79L31.34 5.79Q31.54 5.77 31.76 5.76L31.76 5.76L31.76 5.76Q31.98 5.76 32.27 5.76L32.27 5.76L32.27 5.76Q32.38 5.76 32.46 5.76L32.46 5.76L32.46 5.76Q32.55 5.77 32.65 5.77L32.65 5.77L32.65 5.77Q32.70 5.70 32.76 5.69L32.76 5.69L32.76 5.69Q32.81 5.67 32.84 5.67L32.84 5.67L32.84 5.67Q32.94 5.69 32.98 5.70L32.98 5.70L32.98 5.70Q33.03 5.71 33.06 5.73L33.06 5.73L33.06 5.73Q33.52 5.65 33.91 5.63L33.91 5.63L33.91 5.63Q34.30 5.61 34.62 5.61L34.62 5.61L34.62 5.61Q34.77 5.61 34.92 5.61L34.92 5.61L34.92 5.61Q35.07 5.61 35.21 5.62L35.21 5.62L35.72 5.62L36.09 5.62L36.09 5.62Q36.16 5.61 36.22 5.61L36.22 5.61L36.22 5.61Q36.29 5.61 36.35 5.61L36.35 5.61L36.35 5.61Q36.49 5.61 36.57 5.61L36.57 5.61L36.57 5.61Q36.64 5.61 36.70 5.61L36.70 5.61L36.70 5.61Q36.75 5.62 36.80 5.63L36.80 5.63L36.80 5.63Q36.86 5.63 36.96 5.65L36.96 5.65L36.96 5.65Q37.19 5.69 37.38 5.71L37.38 5.71L37.38 5.71Q37.57 5.74 37.76 5.74L37.76 5.74L38.02 5.73L38.06 5.89L38.19 6.07L38.19 6.07Q38.23 6.15 38.29 6.22L38.29 6.22L38.29 6.22Q38.36 6.29 38.45 6.36L38.45 6.36L38.45 6.36Q38.61 6.51 38.77 6.73L38.77 6.73L38.77 6.73Q38.92 6.96 38.88 7.38L38.88 7.38L38.76 7.55L38.76 7.55Q38.71 7.57 38.66 7.62L38.66 7.62L38.66 7.62Q38.61 7.66 38.55 7.71L38.55 7.71L38.42 7.83L38.42 7.83Q38.24 7.85 38.12 7.85L38.12 7.85L38.12 7.85Q37.99 7.86 37.84 7.86L37.84 7.86L37.84 7.86Q37.60 7.86 37.34 7.85L37.34 7.85L37.34 7.85Q37.09 7.83 36.82 7.82L36.82 7.82L36.82 7.82Q36.67 7.81 36.59 7.81L36.59 7.81L36.59 7.81Q36.50 7.81 36.44 7.81L36.44 7.81L36.44 7.81Q36.37 7.81 36.28 7.81L36.28 7.81L36.28 7.81Q36.19 7.82 36.05 7.82L36.05 7.82L36.05 7.82Q35.92 7.82 35.85 7.82L35.85 7.82L35.85 7.82Q35.79 7.82 35.68 7.83L35.68 7.83L35.68 7.83Q35.66 8.27 35.58 8.59L35.58 8.59L35.58 8.59Q35.51 8.91 35.40 9.27L35.40 9.27L35.40 9.27Q35.14 10.61 34.76 11.80L34.76 11.80L34.76 11.80Q34.38 12.99 33.92 13.95L33.92 13.95L33.92 13.95Q33.48 14.41 33.09 14.77L33.09 14.77L33.09 14.77Q32.69 15.13 32.20 15.29L32.20 15.29ZM36.91 14.44L36.71 14.23L36.89 14.10L36.90 13.81L36.90 13.81Q37.24 12.97 37.60 12.21L37.60 12.21L37.60 12.21Q37.97 11.44 38.36 10.64L38.36 10.64L38.36 10.64Q38.49 10.38 38.62 10.12L38.62 10.12L38.62 10.12Q38.75 9.86 38.87 9.58L38.87 9.58L38.87 9.58Q38.86 9.53 38.86 9.47L38.86 9.47L38.86 9.47Q38.86 9.41 38.88 9.32L38.88 9.32L38.88 9.32Q39.07 9.05 39.19 8.83L39.19 8.83L39.19 8.83Q39.31 8.61 39.42 8.38L39.42 8.38L39.42 8.38Q39.54 8.11 39.68 7.83L39.68 7.83L39.68 7.83Q39.83 7.56 40.04 7.30L40.04 7.30L40.14 7.16L40.29 7.18L40.29 7.18Q40.35 7.15 40.41 7.13L40.41 7.13L40.41 7.13Q40.47 7.11 40.56 7.11L40.56 7.11L40.81 7.15L40.81 7.15Q41.26 6.95 41.61 6.56L41.61 6.56L41.61 6.56Q41.96 6.17 42.31 5.62L42.31 5.62L42.48 5.39L42.70 5.52L42.70 5.52Q42.77 5.56 42.92 5.61L42.92 5.61L42.92 5.61Q43.07 5.65 43.23 5.70L43.23 5.70L43.23 5.70Q43.52 5.77 43.79 5.86L43.79 5.86L43.79 5.86Q44.06 5.95 44.21 6.10L44.21 6.10L44.28 6.22L44.28 6.22Q44.31 6.37 44.33 6.49L44.33 6.49L44.33 6.49Q44.35 6.62 44.38 6.74L44.38 6.74L44.38 6.74Q44.43 7.03 44.47 7.31L44.47 7.31L44.47 7.31Q44.52 7.59 44.53 7.93L44.53 7.93L44.53 7.93Q44.60 8.20 44.66 8.48L44.66 8.48L44.66 8.48Q44.72 8.76 44.78 9.04L44.78 9.04L44.78 9.04Q44.84 9.43 44.93 9.80L44.93 9.80L44.93 9.80Q45.01 10.16 45.14 10.49L45.14 10.49L45.14 10.49Q45.28 10.49 45.31 10.50L45.31 10.50L45.31 10.50Q45.47 10.43 45.69 10.42L45.69 10.42L45.87 10.40L45.92 10.57L45.92 10.57Q45.95 10.61 45.99 10.65L45.99 10.65L45.99 10.65Q46.03 10.69 46.09 10.73L46.09 10.73L46.09 10.73Q46.31 10.75 46.41 10.82L46.41 10.82L46.41 10.82Q46.51 10.90 46.58 10.96L46.58 10.96L46.58 10.96Q46.61 10.99 46.65 11.03L46.65 11.03L46.65 11.03Q46.69 11.06 46.72 11.07L46.72 11.07L46.96 11.17L46.83 11.43L46.83 11.43Q46.68 11.72 46.37 11.99L46.37 11.99L46.37 11.99Q46.06 12.26 45.68 12.44L45.68 12.44L45.68 12.44Q45.71 12.54 45.71 12.62L45.71 12.62L45.71 12.62Q45.72 12.70 45.75 12.81L45.75 12.81L45.75 12.81Q45.80 13.08 45.83 13.38L45.83 13.38L45.83 13.38Q45.87 13.67 45.83 13.99L45.83 13.99L45.83 13.99Q45.69 14.34 45.51 14.62L45.51 14.62L45.51 14.62Q45.32 14.90 45.07 15.13L45.07 15.13L45.07 15.13Q44.82 15.35 44.50 15.50L44.50 15.50L44.50 15.50Q44.19 15.64 43.85 15.65L43.85 15.65L43.85 15.65Q43.65 15.61 43.57 15.56L43.57 15.56L43.57 15.56Q43.48 15.50 43.41 15.45L43.41 15.45L43.41 15.45Q43.30 15.37 43.23 15.34L43.23 15.34L43.05 15.26L43.11 15.05L43.11 15.05Q43.15 14.94 43.10 14.86L43.10 14.86L43.10 14.86Q43.05 14.78 42.90 14.64L42.90 14.64L42.90 14.64Q42.85 14.60 42.81 14.55L42.81 14.55L42.81 14.55Q42.77 14.51 42.71 14.45L42.71 14.45L42.44 14.14L42.89 14.01L42.89 14.01Q43.30 13.90 43.44 13.73L43.44 13.73L43.44 13.73Q43.57 13.56 43.54 13.13L43.54 13.13L43.54 13.13Q43.20 13.06 42.98 13.10L42.98 13.10L42.98 13.10Q42.77 13.15 42.55 13.21L42.55 13.21L42.55 13.21Q42.23 13.29 41.93 13.35L41.93 13.35L41.93 13.35Q41.63 13.41 41.28 13.41L41.28 13.41L41.28 13.41Q41.04 13.41 40.78 13.37L40.78 13.37L40.63 13.36L40.59 13.21L40.59 13.21Q40.59 13.18 40.56 13.15L40.56 13.15L40.56 13.15Q40.52 13.11 40.50 13.08L40.50 13.08L40.50 13.08Q40.43 13.00 40.33 12.87L40.33 12.87L40.33 12.87Q40.24 12.73 40.29 12.52L40.29 12.52L40.29 12.52Q40.20 12.37 40.18 12.21L40.18 12.21L40.18 12.21Q40.13 12.32 40.09 12.42L40.09 12.42L40.09 12.42Q40.06 12.52 40.03 12.62L40.03 12.62L39.98 12.80L39.80 12.82L39.80 12.82Q39.77 12.85 39.75 12.91L39.75 12.91L39.75 12.91Q39.73 12.96 39.74 12.99L39.74 12.99L39.80 13.14L39.66 13.26L39.66 13.26Q39.63 13.30 39.59 13.33L39.59 13.33L39.59 13.33Q39.55 13.36 39.53 13.38L39.53 13.38L39.53 13.38Q39.50 13.54 39.45 13.67L39.45 13.67L39.45 13.67Q39.40 13.81 39.35 13.95L39.35 13.95L39.35 13.95Q39.28 14.16 39.22 14.37L39.22 14.37L39.22 14.37Q39.16 14.57 39.16 14.78L39.16 14.78L39.10 14.96L39.10 14.96Q39.03 15.07 38.93 15.12L38.93 15.12L38.93 15.12Q38.83 15.18 38.73 15.22L38.73 15.22L38.73 15.22Q38.60 15.27 38.54 15.33L38.54 15.33L38.50 15.50L38.29 15.53L38.29 15.53Q38.12 15.57 38.04 15.59L38.04 15.59L38.04 15.59Q37.97 15.60 37.87 15.60L37.87 15.60L37.69 15.59L37.69 15.59Q37.53 15.42 37.43 15.33L37.43 15.33L37.43 15.33Q37.32 15.24 37.19 15.18L37.19 15.18L37.11 15.07L37.11 15.07Q37.05 14.96 37.04 14.87L37.04 14.87L37.04 14.87Q37.02 14.78 37.00 14.68L37.00 14.68L37.00 14.68Q36.97 14.51 36.91 14.44L36.91 14.44ZM41.08 10.66L41.07 10.68L41.07 10.68Q40.88 10.95 40.70 11.25L40.70 11.25L40.70 11.25Q40.80 11.24 40.89 11.24L40.89 11.24L40.89 11.24Q40.97 11.24 41.07 11.22L41.07 11.22L41.07 11.22Q41.55 11.20 41.96 11.16L41.96 11.16L41.96 11.16Q42.37 11.12 42.85 11.02L42.85 11.02L42.85 11.02Q42.74 10.51 42.61 9.99L42.61 9.99L42.61 9.99Q42.48 9.46 42.33 8.93L42.33 8.93L42.26 9.06L42.26 9.06Q41.92 9.43 41.60 9.86L41.60 9.86L41.60 9.86Q41.29 10.28 41.08 10.66L41.08 10.66ZM48.17 14.34L48.17 14.34L48.17 14.34Q47.77 14.04 47.52 13.59L47.52 13.59L47.52 13.59Q47.26 13.14 47.12 12.63L47.12 12.63L47.12 12.63Q46.98 12.13 46.93 11.59L46.93 11.59L46.93 11.59Q46.88 11.05 46.89 10.55L46.89 10.55L46.89 10.55Q47.02 10.19 47.20 9.88L47.20 9.88L47.20 9.88Q47.37 9.57 47.59 9.29L47.59 9.29L47.59 9.29Q47.81 9.01 48.05 8.76L48.05 8.76L48.05 8.76Q48.29 8.50 48.52 8.24L48.52 8.24L48.52 8.24Q48.60 8.24 48.67 8.29L48.67 8.29L48.67 8.29Q48.73 8.13 48.84 8.03L48.84 8.03L48.84 8.03Q48.95 7.92 49.07 7.83L49.07 7.83L49.07 7.83Q49.19 7.74 49.31 7.65L49.31 7.65L49.31 7.65Q49.44 7.56 49.52 7.44L49.52 7.44L49.52 7.44Q49.86 7.36 50.13 7.21L50.13 7.21L50.13 7.21Q50.39 7.05 50.64 6.88L50.64 6.88L50.64 6.88Q50.89 6.70 51.15 6.55L51.15 6.55L51.15 6.55Q51.41 6.40 51.75 6.32L51.75 6.32L51.75 6.32Q51.87 6.18 52.06 6.08L52.06 6.08L52.06 6.08Q52.24 5.99 52.42 5.91L52.42 5.91L52.42 5.91Q52.61 5.82 52.78 5.73L52.78 5.73L52.78 5.73Q52.95 5.63 53.06 5.47L53.06 5.47L53.06 5.47Q53.14 5.58 53.29 5.54L53.29 5.54L53.29 5.54Q53.44 5.51 53.57 5.47L53.57 5.47L53.57 5.47Q53.65 5.46 53.70 5.50L53.70 5.50L53.70 5.50Q53.76 5.54 53.81 5.58L53.81 5.58L53.81 5.58Q53.85 5.63 53.89 5.65L53.89 5.65L53.89 5.65Q53.92 5.66 53.96 5.56L53.96 5.56L53.96 5.56Q54.07 5.58 54.02 5.66L54.02 5.66L54.02 5.66Q53.98 5.74 53.96 5.77L53.96 5.77L53.96 5.77Q54.10 5.74 54.19 5.82L54.19 5.82L54.19 5.82Q54.28 5.89 54.47 5.92L54.47 5.92L54.47 5.92Q54.54 5.99 54.51 6.03L54.51 6.03L54.51 6.03Q54.48 6.07 54.47 6.17L54.47 6.17L54.47 6.17Q54.96 6.32 55.10 6.64L55.10 6.64L55.10 6.64Q55.23 6.96 55.13 7.31L55.13 7.31L55.13 7.31Q55.02 7.66 54.72 7.95L54.72 7.95L54.72 7.95Q54.43 8.24 54.07 8.34L54.07 8.34L54.07 8.34Q53.65 8.45 53.29 8.56L53.29 8.56L53.29 8.56Q52.92 8.67 52.59 8.80L52.59 8.80L52.59 8.80Q52.25 8.94 51.96 9.13L51.96 9.13L51.96 9.13Q51.67 9.31 51.45 9.56L51.45 9.56L51.45 9.56Q51.06 9.67 50.76 9.86L50.76 9.86L50.76 9.86Q50.45 10.05 50.18 10.28L50.18 10.28L50.18 10.28Q49.92 10.51 49.67 10.77L49.67 10.77L49.67 10.77Q49.42 11.02 49.18 11.27L49.18 11.27L49.18 11.27Q49.18 11.50 49.10 11.62L49.10 11.62L49.10 11.62Q49.01 11.74 48.92 11.87L48.92 11.87L48.92 11.87Q48.95 12.13 49.03 12.31L49.03 12.31L49.03 12.31Q49.12 12.50 49.22 12.69L49.22 12.69L49.22 12.69Q50.31 13.02 51.54 13.09L51.54 13.09L51.54 13.09Q52.76 13.17 53.96 13.18L53.96 13.18L53.96 13.18Q54.09 13.34 54.24 13.49L54.24 13.49L54.24 13.49Q54.40 13.63 54.53 13.78L54.53 13.78L54.53 13.78Q54.66 13.93 54.74 14.13L54.74 14.13L54.74 14.13Q54.81 14.33 54.77 14.60L54.77 14.60L54.77 14.60Q54.54 14.83 54.26 15.05L54.26 15.05L54.26 15.05Q53.99 15.26 53.72 15.46L53.72 15.46L53.72 15.46Q53.59 15.48 53.42 15.46L53.42 15.46L53.42 15.46Q53.25 15.45 53.07 15.45L53.07 15.45L53.07 15.45Q52.88 15.45 52.70 15.47L52.70 15.47L52.70 15.47Q52.51 15.49 52.35 15.56L52.35 15.56L52.35 15.56Q51.49 15.53 50.59 15.35L50.59 15.35L50.59 15.35Q49.68 15.16 48.92 14.90L48.92 14.90L48.92 14.90Q48.77 14.72 48.60 14.57L48.60 14.57L48.60 14.57Q48.44 14.41 48.17 14.34ZM55.73 13.03L55.73 13.03L55.73 13.03Q55.74 12.97 55.75 12.95L55.75 12.95L55.75 12.95Q55.75 12.92 55.70 12.88L55.70 12.88L55.70 12.88Q55.67 12.78 55.74 12.76L55.74 12.76L55.74 12.76Q55.81 12.73 55.88 12.70L55.88 12.70L55.88 12.70Q55.95 11.88 56.16 11.20L56.16 11.20L56.16 11.20Q56.37 10.53 56.62 9.88L56.62 9.88L56.62 9.88Q56.88 9.24 57.13 8.59L57.13 8.59L57.13 8.59Q57.38 7.94 57.54 7.18L57.54 7.18L57.54 7.18Q57.72 7 57.84 6.75L57.84 6.75L57.84 6.75Q57.96 6.51 58.07 6.25L58.07 6.25L58.07 6.25Q58.19 6.00 58.34 5.77L58.34 5.77L58.34 5.77Q58.50 5.54 58.78 5.39L58.78 5.39L58.78 5.39Q58.90 5.40 59.00 5.43L59.00 5.43L59.00 5.43Q59.10 5.47 59.20 5.51L59.20 5.51L59.20 5.51Q59.29 5.55 59.40 5.58L59.40 5.58L59.40 5.58Q59.51 5.61 59.64 5.61L59.64 5.61L59.64 5.61Q59.69 5.67 59.73 5.76L59.73 5.76L59.73 5.76Q59.77 5.85 59.84 5.92L59.84 5.92L60.09 5.88L60.09 5.88Q60.27 6.03 60.40 6.25L60.40 6.25L60.40 6.25Q60.54 6.48 60.59 6.72L60.59 6.72L60.59 6.72Q60.65 6.96 60.58 7.18L60.58 7.18L60.58 7.18Q60.51 7.41 60.27 7.53L60.27 7.53L60.27 7.53Q60.28 7.62 60.27 7.66L60.27 7.66L60.27 7.66Q60.25 7.70 60.23 7.73L60.23 7.73L60.23 7.73Q60.21 7.77 60.21 7.80L60.21 7.80L60.21 7.80Q60.21 7.83 60.27 7.89L60.27 7.89L60.27 7.89Q60.12 8.01 59.99 8.20L59.99 8.20L59.99 8.20Q59.87 8.38 59.79 8.59L59.79 8.59L59.79 8.59Q59.71 8.79 59.66 9.00L59.66 9.00L59.66 9.00Q59.61 9.20 59.60 9.38L59.60 9.38L59.60 9.38Q59.99 8.97 60.53 8.61L60.53 8.61L60.53 8.61Q61.06 8.26 61.46 7.94L61.46 7.94L61.46 7.94Q61.77 7.72 62.01 7.53L62.01 7.53L62.01 7.53Q62.25 7.33 62.49 7.16L62.49 7.16L62.49 7.16Q62.74 6.99 63.01 6.83L63.01 6.83L63.01 6.83Q63.27 6.67 63.55 6.48L63.55 6.48L63.55 6.48Q63.68 6.43 63.76 6.45L63.76 6.45L63.76 6.45Q63.83 6.48 63.90 6.52L63.90 6.52L63.90 6.52Q63.92 6.43 63.86 6.41L63.86 6.41L63.86 6.41Q63.81 6.38 63.82 6.28L63.82 6.28L63.82 6.28Q64.05 6.21 64.24 6.11L64.24 6.11L64.24 6.11Q64.42 6.02 64.63 5.93L64.63 5.93L64.63 5.93Q64.76 6.08 64.90 6.25L64.90 6.25L64.90 6.25Q65.04 6.43 65.27 6.44L65.27 6.44L65.27 6.44Q65.35 6.62 65.47 6.71L65.47 6.71L65.47 6.71Q65.58 6.79 65.70 6.88L65.70 6.88L65.70 6.88Q65.82 6.96 65.90 7.08L65.90 7.08L65.90 7.08Q65.98 7.19 65.99 7.44L65.99 7.44L65.99 7.44Q65.94 7.55 65.86 7.68L65.86 7.68L65.86 7.68Q65.79 7.81 65.73 8.00L65.73 8.00L65.73 8.00Q65.41 8.30 65.07 8.52L65.07 8.52L65.07 8.52Q64.74 8.75 64.39 8.96L64.39 8.96L64.39 8.96Q64.04 9.16 63.68 9.38L63.68 9.38L63.68 9.38Q63.31 9.60 62.95 9.88L62.95 9.88L62.95 9.88Q62.86 10.01 62.74 10.10L62.74 10.10L62.74 10.10Q62.62 10.20 62.49 10.29L62.49 10.29L62.49 10.29Q62.36 10.38 62.24 10.47L62.24 10.47L62.24 10.47Q62.13 10.57 62.06 10.71L62.06 10.71L62.06 10.71Q62.00 10.71 61.96 10.71L61.96 10.71L61.96 10.71Q61.92 10.72 61.87 10.73L61.87 10.73L61.87 10.73Q61.81 10.84 61.71 10.91L61.71 10.91L61.71 10.91Q61.61 10.98 61.56 11.09L61.56 11.09L61.56 11.09Q61.81 11.62 62.21 11.89L62.21 11.89L62.21 11.89Q62.60 12.17 63.10 12.29L63.10 12.29L63.10 12.29Q63.59 12.41 64.16 12.43L64.16 12.43L64.16 12.43Q64.74 12.44 65.35 12.44L65.35 12.44L65.35 12.44Q65.42 12.43 65.41 12.37L65.41 12.37L65.41 12.37Q65.41 12.30 65.49 12.32L65.49 12.32L65.49 12.32Q65.69 12.39 65.83 12.48L65.83 12.48L65.83 12.48Q65.97 12.58 66.09 12.69L66.09 12.69L66.09 12.69Q66.21 12.80 66.33 12.91L66.33 12.91L66.33 12.91Q66.45 13.03 66.60 13.15L66.60 13.15L66.60 13.15Q66.57 13.79 66.22 14.20L66.22 14.20L66.22 14.20Q65.87 14.60 65.30 14.85L65.30 14.85L65.30 14.85Q64.50 14.88 63.92 14.81L63.92 14.81L63.92 14.81Q63.33 14.74 62.75 14.51L62.75 14.51L62.75 14.51Q62.71 14.49 62.68 14.42L62.68 14.42L62.68 14.42Q62.64 14.36 62.62 14.33L62.62 14.33L62.62 14.33Q62.51 14.26 62.37 14.27L62.37 14.27L62.37 14.27Q62.23 14.29 62.14 14.25L62.14 14.25L62.14 14.25Q62.02 14.19 61.74 14L61.74 14L61.74 14Q61.46 13.81 61.22 13.64L61.22 13.64L61.22 13.64Q60.94 13.41 60.67 13.19L60.67 13.19L60.67 13.19Q60.40 12.96 60.20 12.69L60.20 12.69L60.20 12.69Q60.16 12.62 60.08 12.62L60.08 12.62L60.08 12.62Q60.01 12.62 59.94 12.58L59.94 12.58L59.94 12.58Q59.46 12.88 59.14 13.32L59.14 13.32L59.14 13.32Q58.82 13.77 58.52 14.23L58.52 14.23L58.52 14.23Q58.21 14.68 57.88 15.09L57.88 15.09L57.88 15.09Q57.54 15.49 57.04 15.71L57.04 15.71L57.04 15.71Q56.89 15.71 56.78 15.66L56.78 15.66L56.78 15.66Q56.67 15.61 56.57 15.54L56.57 15.54L56.57 15.54Q56.48 15.46 56.38 15.39L56.38 15.39L56.38 15.39Q56.29 15.33 56.16 15.30L56.16 15.30L56.16 15.30Q56.16 15.11 56.09 14.94L56.09 14.94L56.09 14.94Q56.01 14.77 55.94 14.62L55.94 14.62L55.94 14.62Q55.86 14.48 55.83 14.34L55.83 14.34L55.83 14.34Q55.79 14.21 55.90 14.07L55.90 14.07L55.90 14.07Q55.75 13.95 55.62 13.86L55.62 13.86L55.62 13.86Q55.71 13.77 55.71 13.69L55.71 13.69L55.71 13.69Q55.70 13.60 55.66 13.52L55.66 13.52L55.66 13.52Q55.62 13.44 55.60 13.35L55.60 13.35L55.60 13.35Q55.58 13.26 55.64 13.15L55.64 13.15L55.64 13.15Q55.70 13.14 55.69 13.10L55.69 13.10L55.69 13.10Q55.69 13.06 55.73 13.03ZM67.09 15.07L67.09 15.07L67.09 15.07Q66.98 14.96 66.93 14.81L66.93 14.81L66.93 14.81Q66.88 14.66 66.71 14.56L66.71 14.56L66.71 14.56Q66.68 14.36 66.63 14.09L66.63 14.09L66.63 14.09Q66.58 13.82 66.53 13.54L66.53 13.54L66.53 13.54Q66.49 13.26 66.47 12.98L66.47 12.98L66.47 12.98Q66.45 12.70 66.49 12.47L66.49 12.47L66.49 12.47Q66.51 12.35 66.58 12.24L66.58 12.24L66.58 12.24Q66.64 12.13 66.70 12.02L66.70 12.02L66.70 12.02Q66.76 11.92 66.79 11.81L66.79 11.81L66.79 11.81Q66.83 11.70 66.80 11.59L66.80 11.59L66.80 11.59Q66.88 11.58 66.90 11.50L66.90 11.50L66.90 11.50Q66.92 11.43 67.03 11.46L67.03 11.46L67.03 11.46Q67.13 11.16 67.24 10.90L67.24 10.90L67.24 10.90Q67.35 10.64 67.47 10.39L67.47 10.39L67.47 10.39Q67.59 10.14 67.72 9.89L67.72 9.89L67.72 9.89Q67.85 9.64 67.96 9.32L67.96 9.32L67.96 9.32Q67.73 9.11 67.63 8.85L67.63 8.85L67.63 8.85Q67.53 8.60 67.47 8.34L67.47 8.34L67.47 8.34Q67.42 8.08 67.39 7.81L67.39 7.81L67.39 7.81Q67.36 7.55 67.28 7.27L67.28 7.27L67.28 7.27Q67.44 7.03 67.68 6.87L67.68 6.87L67.68 6.87Q67.91 6.71 68.19 6.61L68.19 6.61L68.19 6.61Q68.47 6.51 68.80 6.45L68.80 6.45L68.80 6.45Q69.13 6.38 69.49 6.30L69.49 6.30L69.49 6.30Q70.15 6.10 70.67 5.98L70.67 5.98L70.67 5.98Q71.19 5.87 71.68 5.79L71.68 5.79L71.68 5.79Q72.17 5.71 72.71 5.65L72.71 5.65L72.71 5.65Q73.24 5.59 73.94 5.47L73.94 5.47L73.94 5.47Q73.95 5.51 73.99 5.51L73.99 5.51L73.99 5.51Q74.02 5.51 74.07 5.51L74.07 5.51L74.07 5.51Q74.12 5.61 74.22 5.61L74.22 5.61L74.22 5.61Q74.22 5.56 74.22 5.53L74.22 5.53L74.22 5.53Q74.21 5.50 74.21 5.47L74.21 5.47L74.21 5.47Q74.24 5.47 74.29 5.48L74.29 5.48L74.29 5.48Q74.33 5.50 74.37 5.51L74.37 5.51L74.37 5.51Q74.40 5.52 74.43 5.50L74.43 5.50L74.43 5.50Q74.46 5.48 74.44 5.41L74.44 5.41L74.44 5.41Q74.61 5.70 74.87 5.89L74.87 5.89L74.87 5.89Q75.13 6.07 75.44 6.21L75.44 6.21L75.44 6.21Q75.46 6.33 75.45 6.38L75.45 6.38L75.45 6.38Q75.44 6.44 75.43 6.49L75.43 6.49L75.43 6.49Q75.41 6.54 75.41 6.60L75.41 6.60L75.41 6.60Q75.41 6.66 75.44 6.77L75.44 6.77L75.44 6.77Q75.22 7.14 74.94 7.34L74.94 7.34L74.94 7.34Q74.66 7.55 74.35 7.66L74.35 7.66L74.35 7.66Q74.03 7.77 73.68 7.82L73.68 7.82L73.68 7.82Q73.34 7.88 72.97 7.94L72.97 7.94L72.97 7.94Q72.61 8.00 72.24 8.11L72.24 8.11L72.24 8.11Q71.87 8.22 71.52 8.44L71.52 8.44L71.52 8.44Q71.41 8.39 71.32 8.40L71.32 8.40L71.32 8.40Q71.23 8.41 71.13 8.44L71.13 8.44L71.13 8.44Q71.04 8.46 70.92 8.49L70.92 8.49L70.92 8.49Q70.81 8.52 70.64 8.49L70.64 8.49L70.64 8.49Q70.53 8.59 70.39 8.63L70.39 8.63L70.39 8.63Q70.25 8.67 70.10 8.71L70.10 8.71L70.10 8.71Q70.16 8.86 70.16 9.01L70.16 9.01L70.16 9.01Q70.15 9.16 70.19 9.27L70.19 9.27L70.19 9.27Q70.77 9.32 71.46 9.26L71.46 9.26L71.46 9.26Q72.16 9.20 72.83 9.17L72.83 9.17L72.83 9.17Q72.84 9.24 72.82 9.27L72.82 9.27L72.82 9.27Q72.79 9.30 72.79 9.37L72.79 9.37L72.79 9.37Q72.91 9.45 73.02 9.57L73.02 9.57L73.02 9.57Q73.13 9.69 73.25 9.81L73.25 9.81L73.25 9.81Q73.36 9.93 73.49 10.00L73.49 10.00L73.49 10.00Q73.61 10.08 73.77 10.06L73.77 10.06L73.77 10.06Q73.84 10.20 73.87 10.35L73.87 10.35L73.87 10.35Q73.90 10.50 73.83 10.66L73.83 10.66L73.83 10.66Q73.55 10.84 73.29 11.03L73.29 11.03L73.29 11.03Q73.04 11.21 72.75 11.36L72.75 11.36L72.75 11.36Q72.47 11.51 72.15 11.61L72.15 11.61L72.15 11.61Q71.82 11.70 71.44 11.69L71.44 11.69L71.44 11.69Q71.37 11.69 71.32 11.69L71.32 11.69L71.32 11.69Q71.27 11.69 71.20 11.63L71.20 11.63L71.20 11.63Q71.07 11.70 70.84 11.68L70.84 11.68L70.84 11.68Q70.62 11.66 70.46 11.73L70.46 11.73L70.46 11.73Q70.27 11.66 70.02 11.66L70.02 11.66L70.02 11.66Q69.77 11.66 69.58 11.59L69.58 11.59L69.58 11.59Q69.33 11.95 69.11 12.34L69.11 12.34L69.11 12.34Q68.89 12.73 68.73 13.17L68.73 13.17L68.73 13.17Q69.29 13.25 69.66 13.23L69.66 13.23L69.66 13.23Q70.03 13.22 70.36 13.18L70.36 13.18L70.36 13.18Q70.68 13.14 71.03 13.10L71.03 13.10L71.03 13.10Q71.38 13.06 71.89 13.07L71.89 13.07L71.89 13.07Q72.23 12.91 72.67 12.84L72.67 12.84L72.67 12.84Q73.12 12.78 73.50 12.66L73.50 12.66L73.50 12.66Q73.64 12.70 73.73 12.82L73.73 12.82L73.73 12.82Q73.83 12.93 73.92 13.05L73.92 13.05L73.92 13.05Q74.01 13.17 74.10 13.25L74.10 13.25L74.10 13.25Q74.20 13.33 74.35 13.30L74.35 13.30L74.35 13.30Q74.42 13.37 74.44 13.47L74.44 13.47L74.44 13.47Q74.46 13.56 74.48 13.64L74.48 13.64L74.48 13.64Q74.50 13.73 74.54 13.77L74.54 13.77L74.54 13.77Q74.58 13.82 74.69 13.81L74.69 13.81L74.69 13.81Q74.43 14.34 74.11 14.63L74.11 14.63L74.11 14.63Q73.79 14.92 73.38 15.07L73.38 15.07L73.38 15.07Q72.98 15.23 72.48 15.31L72.48 15.31L72.48 15.31Q71.98 15.38 71.37 15.49L71.37 15.49L71.37 15.49Q71.22 15.52 71.11 15.48L71.11 15.48L71.11 15.48Q71.01 15.45 70.90 15.45L70.90 15.45L70.90 15.45Q70.52 15.52 69.99 15.59L69.99 15.59L69.99 15.59Q69.47 15.65 68.93 15.64L68.93 15.64L68.93 15.64Q68.40 15.63 67.91 15.50L67.91 15.50L67.91 15.50Q67.42 15.38 67.09 15.07ZM75.40 7.97L75.40 7.82L75.40 7.82Q75.39 7.71 75.35 7.62L75.35 7.62L75.35 7.62Q75.32 7.53 75.28 7.42L75.28 7.42L75.28 7.42Q75.21 7.26 75.15 7.07L75.15 7.07L75.15 7.07Q75.10 6.88 75.10 6.62L75.10 6.62L75.10 6.62Q75.13 6.48 75.17 6.42L75.17 6.42L75.17 6.42Q75.21 6.36 75.25 6.32L75.25 6.32L75.30 6.07L75.51 6.07L75.51 6.07Q75.62 6.08 75.74 6.08L75.74 6.08L75.74 6.08Q75.85 6.08 75.96 6.08L75.96 6.08L75.96 6.08Q76.48 6.08 77.03 6.04L77.03 6.04L77.03 6.04Q77.57 6.00 78.15 5.95L78.15 5.95L78.15 5.95Q78.78 5.87 79.50 5.82L79.50 5.82L79.50 5.82Q79.57 5.67 79.59 5.63L79.59 5.63L79.59 5.63Q79.61 5.59 79.64 5.54L79.64 5.54L79.79 5.46L79.79 5.46Q80.10 5.44 80.23 5.53L80.23 5.53L80.23 5.53Q80.35 5.62 80.42 5.70L80.42 5.70L80.42 5.70Q80.77 5.67 81.14 5.63L81.14 5.63L81.14 5.63Q81.51 5.58 81.91 5.52L81.91 5.52L81.91 5.52Q82.46 5.46 83.02 5.39L83.02 5.39L83.02 5.39Q83.58 5.32 84.11 5.32L84.11 5.32L84.11 5.32Q84.34 5.32 84.55 5.33L84.55 5.33L84.55 5.33Q84.75 5.35 84.94 5.37L84.94 5.37L85.11 5.50L85.11 5.50Q85.16 5.59 85.24 5.67L85.24 5.67L85.24 5.67Q85.33 5.76 85.44 5.84L85.44 5.84L85.44 5.84Q85.64 6.00 85.84 6.25L85.84 6.25L85.84 6.25Q86.04 6.49 85.98 6.97L85.98 6.97L85.91 7.11L85.91 7.11Q85.86 7.16 85.78 7.22L85.78 7.22L85.64 7.40L85.49 7.40L85.49 7.40Q85.35 7.40 85.29 7.42L85.29 7.42L85.29 7.42Q85.22 7.44 85.12 7.48L85.12 7.48L85.12 7.48Q85.07 7.51 85.00 7.53L85.00 7.53L85.00 7.53Q84.93 7.55 84.85 7.57L84.85 7.57L84.85 7.57Q84.70 7.56 84.62 7.56L84.62 7.56L84.62 7.56Q84.53 7.56 84.42 7.56L84.42 7.56L84.42 7.56Q84.01 7.56 83.54 7.62L83.54 7.62L83.54 7.62Q83.06 7.67 82.61 7.74L82.61 7.74L82.61 7.74Q82.28 7.78 81.98 7.81L81.98 7.81L81.98 7.81Q81.68 7.85 81.43 7.88L81.43 7.88L81.43 7.88Q81.29 8.23 81.18 8.50L81.18 8.50L81.18 8.50Q81.07 8.78 80.95 9.05L80.95 9.05L80.95 9.05Q80.83 9.32 80.72 9.60L80.72 9.60L80.72 9.60Q80.61 9.88 80.51 10.23L80.51 10.23L80.51 10.23Q80.35 10.47 80.24 10.70L80.24 10.70L80.24 10.70Q80.13 10.92 80.06 11.21L80.06 11.21L80.06 11.21Q79.86 11.44 79.77 11.72L79.77 11.72L79.77 11.72Q79.68 11.99 79.61 12.18L79.61 12.18L79.56 12.39L79.56 12.39Q79.46 12.48 79.44 12.54L79.44 12.54L79.44 12.54Q79.42 12.59 79.37 12.66L79.37 12.66L79.37 12.66Q79.32 12.84 79.26 13.00L79.26 13.00L79.26 13.00Q79.23 13.07 79.20 13.15L79.20 13.15L79.20 13.15Q79.17 13.22 79.19 13.26L79.19 13.26L79.19 13.26Q79.16 13.41 79.11 13.49L79.11 13.49L79.11 13.49Q79.11 13.58 79.09 13.66L79.09 13.66L79.09 13.66Q79.08 13.74 79.06 13.82L79.06 13.82L79.06 13.82Q79.04 13.92 79.02 13.99L79.02 13.99L79.02 13.99Q79.01 14.07 79.04 14.14L79.04 14.14L79.04 14.14Q79.08 14.19 79.12 14.25L79.12 14.25L79.12 14.25Q79.16 14.30 79.19 14.38L79.19 14.38L79.19 14.38Q79.21 14.41 79.26 14.42L79.26 14.42L79.26 14.42Q79.30 14.44 79.32 14.46L79.32 14.46L79.32 14.46Q79.43 14.56 79.53 14.57L79.53 14.57L79.67 14.74L79.67 14.74Q79.75 15.23 79.52 15.50L79.52 15.50L79.52 15.50Q79.27 15.82 78.70 15.82L78.70 15.82L78.50 15.80L78.50 15.80Q78.41 15.71 78.39 15.68L78.39 15.68L78.39 15.68Q78.27 15.63 78.19 15.59L78.19 15.59L78.19 15.59Q78.11 15.56 78.04 15.46L78.04 15.46L78.04 15.46Q78.01 15.44 77.97 15.43L77.97 15.43L77.97 15.43Q77.93 15.42 77.90 15.39L77.90 15.39L77.90 15.39Q77.77 15.35 77.68 15.30L77.68 15.30L77.53 15.22L77.53 15.22Q77.55 15.08 77.55 15.03L77.55 15.03L77.55 15.03Q77.44 14.88 77.38 14.70L77.38 14.70L77.38 14.70Q77.31 14.52 77.27 14.33L77.27 14.33L77.27 14.33Q77.23 14.18 77.20 14.05L77.20 14.05L77.20 14.05Q77.16 13.93 77.10 13.84L77.10 13.84L77.10 13.84Q77.07 12.88 77.27 12.23L77.27 12.23L77.27 12.23Q77.48 11.58 77.72 10.96L77.72 10.96L77.72 10.96Q77.86 10.64 77.98 10.29L77.98 10.29L77.98 10.29Q78.11 9.95 78.20 9.60L78.20 9.60L78.35 9.45L78.35 9.45Q78.45 9.37 78.48 9.35L78.48 9.35L78.48 9.35Q78.48 9.17 78.54 9.00L78.54 9.00L78.54 9.00Q78.61 8.83 78.70 8.65L78.70 8.65L78.70 8.65Q78.75 8.54 78.80 8.44L78.80 8.44L78.80 8.44Q78.85 8.33 78.86 8.24L78.86 8.24L78.86 8.24Q78.76 8.24 78.69 8.25L78.69 8.25L78.69 8.25Q78.61 8.26 78.53 8.27L78.53 8.27L78.53 8.27Q78.35 8.31 78.19 8.31L78.19 8.31L78.19 8.31Q78.07 8.31 78.01 8.30L78.01 8.30L78.01 8.30Q77.90 8.35 77.81 8.36L77.81 8.36L77.81 8.36Q77.71 8.37 77.62 8.37L77.62 8.37L77.45 8.37L77.29 8.37L77.29 8.37Q77.12 8.37 77.03 8.41L77.03 8.41L77.03 8.41Q76.84 8.41 76.78 8.41L76.78 8.41L76.78 8.41Q76.73 8.41 76.66 8.41L76.66 8.41L76.49 8.41L76.33 8.41L76.33 8.41Q76.22 8.41 76.08 8.39L76.08 8.39L76.08 8.39Q75.95 8.37 75.80 8.29L75.80 8.29L75.70 8.18L75.70 8.18Q75.62 8.03 75.55 8.01L75.55 8.01L75.40 7.97ZM83.78 9.37L83.78 9.37L83.78 9.37Q83.82 9.16 83.84 9.03L83.84 9.03L83.84 9.03Q83.85 8.90 83.74 8.75L83.74 8.75L83.74 8.75Q83.79 8.53 83.83 8.41L83.83 8.41L83.83 8.41Q83.86 8.29 83.84 8.07L83.84 8.07L83.84 8.07Q83.96 7.71 84.21 7.46L84.21 7.46L84.21 7.46Q84.46 7.22 84.77 7.05L84.77 7.05L84.77 7.05Q85.07 6.88 85.39 6.76L85.39 6.76L85.39 6.76Q85.72 6.64 86.01 6.56L86.01 6.56L86.01 6.56Q86.01 6.51 85.96 6.51L85.96 6.51L85.96 6.51Q85.90 6.51 85.93 6.44L85.93 6.44L85.93 6.44Q86.67 6.30 87.41 6.04L87.41 6.04L87.41 6.04Q88.16 5.78 88.94 5.58L88.94 5.58L88.94 5.58Q89.71 5.37 90.54 5.33L90.54 5.33L90.54 5.33Q91.36 5.28 92.26 5.54L92.26 5.54L92.26 5.54Q92.31 5.70 92.41 5.85L92.41 5.85L92.41 5.85Q92.50 6.00 92.61 6.15L92.61 6.15L92.61 6.15Q92.71 6.29 92.79 6.43L92.79 6.43L92.79 6.43Q92.87 6.56 92.89 6.71L92.89 6.71L92.89 6.71Q93.05 6.86 93.15 7.03L93.15 7.03L93.15 7.03Q93.26 7.21 93.19 7.49L93.19 7.49L93.19 7.49Q93.04 7.60 92.87 7.71L92.87 7.71L92.87 7.71Q92.71 7.82 92.53 7.92L92.53 7.92L92.53 7.92Q91.92 7.77 91.30 7.81L91.30 7.81L91.30 7.81Q90.69 7.85 90.19 7.90L90.19 7.90L90.19 7.90Q90.04 7.74 89.84 7.75L89.84 7.75L89.84 7.75Q89.63 7.75 89.41 7.81L89.41 7.81L89.41 7.81Q89.18 7.88 88.96 7.94L88.96 7.94L88.96 7.94Q88.74 8.00 88.55 7.97L88.55 7.97L88.55 7.97Q88.40 8.11 88.16 8.16L88.16 8.16L88.16 8.16Q87.91 8.20 87.64 8.23L87.64 8.23L87.64 8.23Q87.62 8.30 87.66 8.33L87.66 8.33L87.66 8.33Q87.71 8.35 87.68 8.44L87.68 8.44L87.68 8.44Q87.77 8.56 87.94 8.61L87.94 8.61L87.94 8.61Q88.10 8.65 88.27 8.70L88.27 8.70L88.27 8.70Q88.44 8.74 88.58 8.81L88.58 8.81L88.58 8.81Q88.72 8.89 88.76 9.05L88.76 9.05L88.76 9.05Q89.00 9.06 89.18 9.18L89.18 9.18L89.18 9.18Q89.36 9.30 89.48 9.46L89.48 9.46L89.48 9.46Q89.61 9.63 89.66 9.81L89.66 9.81L89.66 9.81Q89.71 9.99 89.70 10.14L89.70 10.14L89.70 10.14Q89.76 10.28 89.82 10.25L89.82 10.25L89.82 10.25Q89.88 10.23 89.96 10.32L89.96 10.32L89.96 10.32Q90.02 10.53 90.21 10.75L90.21 10.75L90.21 10.75Q90.41 10.98 90.52 11.24L90.52 11.24L90.52 11.24Q90.55 11.65 90.57 11.98L90.57 11.98L90.57 11.98Q90.59 12.30 90.45 12.62L90.45 12.62L90.45 12.62Q90.22 13.22 89.78 13.70L89.78 13.70L89.78 13.70Q89.35 14.18 88.79 14.54L88.79 14.54L88.79 14.54Q88.24 14.90 87.62 15.17L87.62 15.17L87.62 15.17Q87.01 15.44 86.41 15.61L86.41 15.61L86.41 15.61Q86.35 15.60 86.28 15.61L86.28 15.61L86.28 15.61Q86.20 15.63 86.24 15.53L86.24 15.53L86.24 15.53Q86.12 15.64 85.96 15.67L85.96 15.67L85.96 15.67Q85.80 15.70 85.62 15.69L85.62 15.69L85.62 15.69Q85.44 15.68 85.25 15.67L85.25 15.67L85.25 15.67Q85.07 15.65 84.89 15.68L84.89 15.68L84.89 15.68Q84.78 15.57 84.69 15.46L84.69 15.46L84.69 15.46Q84.60 15.35 84.55 15.20L84.55 15.20L84.55 15.20Q84.48 15.19 84.49 15.11L84.49 15.11L84.49 15.11Q84.49 15.04 84.42 15.04L84.42 15.04L84.42 15.04Q84.42 14.98 84.44 14.96L84.44 14.96L84.44 14.96Q84.45 14.93 84.46 14.90L84.46 14.90L84.46 14.90Q84.52 14.86 84.51 14.84L84.51 14.84L84.51 14.84Q84.51 14.82 84.47 14.80L84.47 14.80L84.47 14.80Q84.44 14.78 84.40 14.75L84.40 14.75L84.40 14.75Q84.37 14.72 84.38 14.68L84.38 14.68L84.38 14.68Q84.45 14.56 84.43 14.39L84.43 14.39L84.43 14.39Q84.41 14.22 84.40 14.04L84.40 14.04L84.40 14.04Q84.38 13.86 84.42 13.71L84.42 13.71L84.42 13.71Q84.46 13.55 84.66 13.44L84.66 13.44L84.66 13.44Q85.22 13.49 85.72 13.38L85.72 13.38L85.72 13.38Q86.21 13.28 86.66 13.08L86.66 13.08L86.66 13.08Q87.10 12.89 87.51 12.67L87.51 12.67L87.51 12.67Q87.91 12.44 88.29 12.25L88.29 12.25L88.29 12.25Q88.33 12.11 88.42 12.02L88.42 12.02L88.42 12.02Q88.51 11.92 88.61 11.83L88.61 11.83L88.61 11.83Q88.70 11.74 88.79 11.64L88.79 11.64L88.79 11.64Q88.87 11.54 88.91 11.39L88.91 11.39L88.91 11.39Q88.92 11.33 88.91 11.31L88.91 11.31L88.91 11.31Q88.89 11.28 88.87 11.26L88.87 11.26L88.87 11.26Q88.84 11.24 88.81 11.21L88.81 11.21L88.81 11.21Q88.79 11.18 88.79 11.13L88.79 11.13L88.79 11.13Q88.74 11.12 88.71 11.10L88.71 11.10L88.71 11.10Q88.68 11.09 88.65 11.09L88.65 11.09L88.65 11.09Q88.29 10.91 87.90 10.79L87.90 10.79L87.90 10.79Q87.50 10.66 87.23 10.51L87.23 10.51L87.23 10.51Q87.06 10.62 86.90 10.57L86.90 10.57L86.90 10.57Q86.73 10.51 86.50 10.46L86.50 10.46L86.50 10.46Q85.93 10.43 85.42 10.35L85.42 10.35L85.42 10.35Q84.90 10.27 84.42 10.06L84.42 10.06L84.42 10.06Q84.40 9.98 84.36 9.92L84.36 9.92L84.36 9.92Q84.31 9.86 84.16 9.88L84.16 9.88L84.16 9.88Q84.07 9.75 83.97 9.63L83.97 9.63L83.97 9.63Q83.86 9.52 83.78 9.37Z"></path></g><defs data-v-fde0c5aa=""><linearGradient data-v-fde0c5aa="" gradientTransform="rotate(25)" id="63d61f61-3fc8-433a-b8c0-fe95f898d5a5" x1="0%" y1="0%" x2="100%" y2="0%"><stop data-v-fde0c5aa="" offset="0%" stop-color="#30092A" stop-opacity="1"></stop><stop data-v-fde0c5aa="" offset="100%" stop-color="#CB3C61" stop-opacity="1"></stop></linearGradient></defs><g data-v-fde0c5aa="" id="640da55b-b638-48cb-b979-54e204e2d451" stroke="none" fill="url(#63d61f61-3fc8-433a-b8c0-fe95f898d5a5)" transform="matrix(1.256085753440857,0,0,1.256085753440857,31.83544262836699,129.90262800828796)"><path d="M21.5 12v16a.5.5 0 0 1-.5.5H11a.5.5 0 0 1-.5-.5V12a.5.5 0 1 0-1 0v14.5H8a.5.5 0 0 1-.5-.5v-.585A1.5 1.5 0 0 1 6.5 24V10c0-2.276 1.224-3.5 3.5-3.5h1.5V5.314l.282.136c1.23.615 2.472.962 3.718 1.035V26.5h1V8.207l.146.147a.5.5 0 0 0 .708-.708l-.854-.853v-.308c1.246-.073 2.488-.42 3.724-1.038l.276-.133V6.5H22c2.276 0 3.5 1.224 3.5 3.5v14a1.5 1.5 0 0 1-1 1.415V26a.5.5 0 0 1-.5.5h-1.5V12a.5.5 0 1 0-1 0zm-9.576-7.592c.833-.62 2.19-.908 4.076-.908 1.887 0 3.243.289 4.076.908l-.294.142c-1.271.636-2.529.95-3.782.95-1.253 0-2.51-.314-3.776-.947l-.3-.145z"></path></g><!----></svg>